<?xml version="1.0" encoding="utf-8"?>
<!-- Generator: Adobe Illustrator 16.0.0, SVG Export Plug-In . SVG Version: 6.00 Build 0)  -->
<!DOCTYPE svg PUBLIC "-//W3C//DTD SVG 1.1//EN" "http://www.w3.org/Graphics/SVG/1.1/DTD/svg11.dtd">
<svg version="1.1" id="Layer_1" xmlns="http://www.w3.org/2000/svg" xmlns:xlink="http://www.w3.org/1999/xlink" x="0px" y="0px"
	 width="42.875px" height="51.763px" viewBox="0 0 42.875 51.763" enable-background="new 0 0 42.875 51.763" fill="#fff" xml:space="preserve">
<g>
	<defs>
		<rect id="SVGID_1_" x="-22.875" y="-22.479" width="236.616" height="96.854"/>
	</defs>
	<clipPath id="SVGID_2_">
		<use xlink:href="#SVGID_1_"  overflow="visible"/>
	</clipPath>
	<path clip-path="url(#SVGID_2_)" d="M38.496,3.952L27.288,0.963c-3.828-1.021-7.857-1.021-11.686,0L4.394,3.952
		C1.912,4.614,0.185,6.862,0.185,9.43v19.592c0,5.714,2.87,11.047,7.638,14.195l12.256,8.09c0.955,0.63,2.196,0.624,3.145-0.016
		l11.973-8.062c4.693-3.16,7.508-8.449,7.508-14.107V9.43C42.705,6.862,40.978,4.614,38.496,3.952 M11.523,34.49
		c-1.566,0-2.835-1.269-2.835-2.834c0-1.566,1.269-2.835,2.835-2.835c1.565,0,2.835,1.269,2.835,2.835
		C14.358,33.222,13.088,34.49,11.523,34.49 M18.609,25.987h-7.086c-1.566,0-2.835-1.27-2.835-2.835c0-1.566,1.269-2.835,2.835-2.835
		h7.086c1.566,0,2.835,1.269,2.835,2.835C21.445,24.717,20.176,25.987,18.609,25.987 M34.201,14.648
		c0,1.565-1.269,2.835-2.835,2.835H11.523c-1.566,0-2.835-1.27-2.835-2.835c0-1.566,1.269-2.835,2.835-2.835h19.842
		C32.932,11.813,34.201,13.083,34.201,14.648z"/>
</g>
</svg>
